<?xml version="1.0" encoding="UTF-8"?>
<svg id="Layer_1" xmlns="http://www.w3.org/2000/svg" version="1.1" viewBox="0 0 93 93">
  <!-- Generator: Adobe Illustrator 29.1.0, SVG Export Plug-In . SVG Version: 2.1.0 Build 142)  -->
  <defs>
    <style>
      .st0 {
        fill-rule: evenodd;
                fill: #ccbb88;
      }
    </style>
  </defs>
  <path class="st0" d="M49.9,80.5c-2.6-1.5-5.1-3.1-7.5-4.6.3-.2.5-.5.8-.7l25.5-25.5c1.3-1.3,1.7-3.2,1.1-4.9s-2-2.9-3.8-3.2l1.4-1.4c1.8-1.9,1.8-4.9,0-6.7-.7-.7-1.7-1.2-2.7-1.3,1.9-1.9,1.9-4.9,0-6.7-1.9-1.9-4.9-1.9-6.7,0l-1.4,1.4c0-1-.6-2-1.3-2.7-1.9-1.8-4.9-1.8-6.7,0l-11.8,11.8c-.2-2-1.5-3.8-3.5-4.5s-4.1-.2-5.5,1.2l-11,11c-1.1,1.1-2.1,2.4-2.9,3.8-2.4-4.1-4.2-8.4-5.4-12.9C4.1,19,12.7,4.5,25.8,1.9c10.3-2,20.4,2.2,24.1,15.7,3.6-13.4,13.8-17.6,24-15.6,13.1,2.6,21.7,17.1,17.6,32.6-4.9,18.3-19.8,33.4-41.6,46h0ZM20.3,91.2c.2.2.4.3.7.3s.5,0,.7-.3l5-4.9c.2-.2.3-.4.3-.7s-.1-.5-.3-.7l-19.6-19.6c-.2-.2-.4-.3-.7-.3s-.5,0-.7.3l-4.9,5h0c-.2.2-.3.4-.3.7s.1.5.3.7l19.6,19.5h-.1ZM67.3,48.3c.6-.5,1-1.3,1-2.1s-.3-1.6-.8-2.1-1.3-.9-2.1-.8c-.8,0-1.5.4-2.1,1l-13.5,13.4c-.4.2-.9,0-1.2-.2s-.4-.8-.2-1.2l17.5-17.5c.9-1.1.8-2.8-.2-3.8s-2.6-1.1-3.8-.2l-17.5,17.5c-.4.4-1,.4-1.4,0s-.4-1,0-1.4l20.2-20.2c.9-1.1.9-2.8-.2-3.8-1-1-2.7-1.1-3.8-.2l-20.3,20.2c-.4.2-.9,0-1.2-.2s-.4-.8-.2-1.2l16.2-16.1c.9-1.1.9-2.8-.2-3.8s-2.7-1.1-3.8-.2l-14.7,14.6-7,7.1c-.4.4-1,.4-1.4,0s-.4-1,0-1.4l7.1-7.1c.7-.6,1.1-1.5,1.1-2.4s-.3-1.8-1-2.5-1.5-1-2.5-1-1.8.4-2.4,1.1l-11,11c-2.7,2.6-4.3,6-4.7,9.7-.3,3.6-1.8,7.1-4.2,9.9l18.2,18.3c2-2,3.1-3.2,5.8-4.4l4.8-2.1h0c1.5-.6,2.8-1.5,3.9-2.6l25.6-25.3h0Z"/>
</svg>