<?xml version="1.0" encoding="UTF-8"?>
<svg id="Layer_1" xmlns="http://www.w3.org/2000/svg" version="1.1" viewBox="0 0 89 89">
  <!-- Generator: Adobe Illustrator 29.1.0, SVG Export Plug-In . SVG Version: 2.1.0 Build 142)  -->
  <defs>
    <style>
      .st0 {
        fill-rule: evenodd;
      }
    </style>
  </defs>
  <path class="st0" d="M43.2,47.5v-31.3c0-.1,0-.2.2-.2.8.1,1.5.1,2.3,0,.1,0,.2,0,.2.2v31.3c0,0,0,.2.2.2,8.3.2,16.1,2.1,22.7,5.1,7.3,3.4,13.2,8.3,16.9,14.1.3.5.3,1,0,1.5-3.7,5.8-9.6,10.7-16.9,14.1-14.8,6.9-33.7,6.9-48.5,0-7.3-3.4-13.2-8.3-16.9-14.1-.3-.5-.3-1,0-1.5,3.7-5.8,9.6-10.7,16.9-14.1,6.6-3.1,14.4-4.9,22.7-5.1.1,0,.2,0,.2-.2h0ZM53.5,58.1c-5.3-5.3-13.9-5.3-19.2,0s-5.3,13.9,0,19.2c5.3,5.3,13.9,5.3,19.2,0,3.2-3.2,4.6-7.8,3.7-12.3,0,0,0-.1,0-.2l6.4-6.4c.6-.6.6-1.7,0-2.3-.6-.6-1.7-.6-2.3,0l-18.6,18.6c-.6.6-1.7.6-2.3,0l-6-6c-.6-.6-.6-1.7,0-2.3s1.7-.6,2.3,0l4.7,4.7c0,0,.2,0,.3,0l12.3-12.3c0,0,0-.2,0-.2-.2-.2-.3-.3-.5-.5h0ZM38.4,7.4c0,3.4,2.7,6.1,6.1,6.1s6.1-2.7,6.1-6.1-2.7-6.1-6.1-6.1c-3.4,0-6.1,2.7-6.1,6.1ZM88.9,29.5c0-.7-.6-1.3-1.3-1.3h-2.1c0,0-.1,0-.2-.1l-9.4-21.2c-.2-.5-.7-.8-1.2-.8h0s-21.4,0-21.4,0c-.1,0-.2,0-.2.2.1.8.1,1.5,0,2.3,0,.1,0,.2.2.2h19c.1,0,.2.1.2.3l-8.4,19c0,0,0,.1-.2.1h-2.1c-.7,0-1.3.6-1.3,1.3,0,7.9,6.4,14.3,14.3,14.3s14.3-6.4,14.3-14.3h0ZM67.2,28.2h14.9c.1,0,.2-.1.2-.3l-7.5-16.8c0-.1-.3-.1-.3,0l-7.5,16.8c0,.1,0,.3.2.3h0ZM28.6,29.5c0-.7-.6-1.3-1.3-1.3h-2.1c0,0-.1,0-.2-.1l-8.4-19c0-.1,0-.3.2-.3h19c.1,0,.2,0,.2-.2-.1-.8-.1-1.5,0-2.3,0-.1,0-.2-.2-.2H14.4c-.5,0-1,.3-1.2.8L3.8,28.1c0,0,0,.1-.2.1H1.5c-.7,0-1.3.6-1.3,1.3,0,7.9,6.4,14.3,14.3,14.3s14.3-6.4,14.3-14.3h0ZM6.9,28.2h14.9c.1,0,.2-.1.2-.3l-7.5-16.8c0-.1-.3-.1-.3,0l-7.5,16.8c0,.1,0,.3.2.3h0ZM67.6,80.1c6.5-3,11.8-7.3,15.2-12.3,0,0,0-.1,0-.2-3.4-5-8.7-9.3-15.2-12.3-14.1-6.6-32.2-6.6-46.3,0-6.5,3-11.8,7.3-15.2,12.3,0,0,0,.1,0,.2,3.4,5,8.7,9.3,15.2,12.3,14.1,6.6,32.2,6.6,46.3,0Z"/>
</svg>