<?xml version="1.0" encoding="UTF-8"?>
<svg id="Layer_1" xmlns="http://www.w3.org/2000/svg" version="1.1" viewBox="0 0 110 110.2">
  <!-- Generator: Adobe Illustrator 29.1.0, SVG Export Plug-In . SVG Version: 2.1.0 Build 142)  -->
  <path d="M104.5,62.1c0-2.5-2-4.5-4.5-4.5h-19.7c-2.5,0-4.5,2-4.5,4.5v2.4c0,.6.1,1.2.3,1.7-1.4-.5-3-.8-4.6-.8s-2.7.2-4,.6c-1-6.9-7.4-9.1-13.1-11.1-1.8-.6-3.6-1.3-5.2-2-2.1-1-3.4-3-3.4-5.4v-1.1c2.9-2.2,5-5.3,5.7-9h1.1c2.8,0,5-2.2,5-5v-4.4c0-1.1,0-2.1,0-3.2,0-4.1.1-7.7-1.1-10.5-1.4-3.2-4.3-4.9-9-5.4l1.6-2.2c.6-.9.7-2.1.2-3-.5-1-1.5-1.6-2.6-1.6h-12.6c-4.9,0-9.5,1.6-12.9,4.4-3.8,3.1-5.8,7.5-5.8,12.4v13.4c0,2.8,2.2,5,5,5h1.1c.8,3.7,2.9,6.9,5.8,9.1v1.1c0,2.4-1.3,4.4-3.4,5.4-1.6.7-3.4,1.4-5.2,2-6.2,2.2-13.2,4.6-13.2,13v23.4c0,1.6,1.3,2.9,2.9,2.9h56.3c.8,0,1.5-.3,2-.8,1.5.5,3.1.8,4.8.8s4-.4,5.7-1.2c.8.8,1.9,1.2,3.1,1.2h19.7c2.5,0,4.5-2,4.5-4.5v-2.4c0-1.1-.4-2.2-1.1-3,.7-.8,1.1-1.8,1.1-3v-2.4c0-1.1-.4-2.2-1.1-3,.7-.8,1.1-1.8,1.1-3v-2.4c0-1.1-.4-2.2-1.1-3,.7-.8,1.1-1.8,1.1-3v-2.4ZM78.9,62.1c0-.8.6-1.4,1.4-1.4h19.7c.8,0,1.4.6,1.4,1.4v2.4c0,.8-.6,1.4-1.4,1.4h-19.7c-.8,0-1.4-.6-1.4-1.4v-2.4ZM101.4,70.5v2.4c0,.8-.6,1.4-1.4,1.4h-15.2c-.9-2-2.2-3.9-3.8-5.3h19c.8,0,1.4.6,1.4,1.4h0ZM101.4,78.9v2.4c0,.8-.6,1.4-1.4,1.4h-14.4c.2-.9.3-1.9.3-2.9s0-1.6-.2-2.4h14.3c.8,0,1.4.6,1.4,1.4h0ZM30.9,91.2l-.3-2.8,4.3-19.4h3.3l4.3,19.4-.3,2.8h-11.3ZM30.8,64.4l1.2,3.1-2.6,11.7-1.5-12.1,2.9-2.7ZM36,59.6h1.1l2.8,2.6-1.5,3.7h-3.7l-1.5-3.7,2.8-2.6ZM43.7,79.2l-2.6-11.7,1.2-3.1,2.9,2.7-1.5,12.1ZM46.7,55l-1,8.3-5.7-5.3,4.7-4.8c.6.7,1.2,1.4,2,1.9h0ZM54.6,32.5c0,1-.8,1.9-1.9,1.9h-.8v-8.2h.8c1,0,1.9.8,1.9,1.9v4.4ZM34.2,5.4h12.3l-1.6,2.2c-.6.9-.7,2-.3,2.9.4,1,1.3,1.6,2.4,1.7,7.1.6,7.7,3.8,7.6,11.3-.6-.3-1.3-.4-1.9-.4h-1.2c-.8-2.2-2.9-3.7-5.4-3.7h-1.1c-.9,0-1.6-.2-2.4-.7l-1.9-1.3c-2.5-1.7-5.7-1.7-8.3,0l-1.9,1.3c-.8.5-1.5.7-2.4.7h-1.1c-2.5,0-4.6,1.5-5.4,3.7h-1.2c-.7,0-1.3.1-1.9.4v-4.4c0-9,7.9-13.7,15.7-13.7h0ZM18.5,32.5v-4.4c0-1,.8-1.9,1.9-1.9h.8v8.2h-.8c-1,0-1.9-.8-1.9-1.9h0ZM24.4,35.8s0,0,0,0c0-.4,0-.8,0-1.3v-9.2c0-1.5,1.2-2.7,2.7-2.7h1.1c1.5,0,2.9-.4,4.1-1.3l1.9-1.3c1.5-1,3.3-1,4.8,0l1.9,1.3c1.3.8,2.6,1.3,4.1,1.3h1.1c1.5,0,2.7,1.2,2.7,2.7v9.2c0,.4,0,.9,0,1.3,0,0,0,0,0,0-.4,3.5-2.3,6.6-5.1,8.5,0,0-.2,0-.2.1-1.9,1.2-4.1,1.9-6.5,1.9h-.7c-2.4,0-4.6-.7-6.5-1.9,0,0-.1,0-.2-.1-2.8-1.9-4.8-5-5.2-8.6h0ZM36.2,49.5h.7c2.1,0,4.1-.4,5.9-1.2,0,.7.2,1.3.4,1.9l-6.1,6.3h-1l-6.1-6.2c.2-.6.3-1.3.3-1.9,1.8.8,3.8,1.2,5.9,1.2h0ZM28.5,53.2l4.7,4.8-2.8,2.7s0,0,0,0l-2.8,2.7-1-8.3c.8-.5,1.5-1.2,2-1.9h0ZM8.6,68c0-6.2,5.2-8,11.1-10.1,1.3-.4,2.6-.9,3.8-1.4l1.3,10.3,3,24.4h-6.3v-10.1c0-.9-.7-1.5-1.6-1.5s-1.5.7-1.5,1.5v10.1h-9.8v-23.2ZM54.8,91.2v-10.1c0-.9-.7-1.5-1.5-1.5s-1.5.7-1.5,1.5v10.1h-6.3l.3-2.7s0,0,0-.1l2.7-21.6c0,0,0-.1,0-.2l1.3-10.2c1.2.5,2.5,1,3.8,1.4,5.8,2,10.8,3.8,11.1,9.5-4.4,2.5-7.4,7.2-7.4,12.5s2.1,8.6,5.5,11.3h-7.9ZM60.3,79.9c0-6.2,5.1-11.3,11.3-11.3s11.3,5.1,11.3,11.3-5.1,11.3-11.3,11.3-11.3-5.1-11.3-11.3ZM101.4,89.7c0,.8-.7,1.4-1.4,1.4h-19.6c1.8-1.4,3.2-3.2,4.2-5.3h15.4c.8,0,1.4.6,1.4,1.4v2.4ZM75.5,79.9c.9.9,1.3,2,1.2,3.2-.1,1.2-.8,2.4-1.9,3.1-.5.3-1.1.6-1.7.7v1c0,.9-.7,1.5-1.5,1.5s-1.5-.7-1.5-1.5v-1.2c-1.6-.6-2.8-1.8-3.6-3.4-.3-.8,0-1.7.8-2,.8-.3,1.7,0,2,.8.5,1.1,1.2,1.6,1.8,1.8.7.2,1.5.1,2-.2.3-.2.5-.5.5-.8,0-.3,0-.5-.3-.7-.2-.2-1-.4-1.7-.6-1.2-.3-2.7-.6-3.8-1.8-1-1-1.3-2.4-1-3.8.3-1.4,1.4-2.5,2.8-3,0,0,.2,0,.3,0v-1.1c0-.9.7-1.5,1.5-1.5s1.5.7,1.5,1.5v1.1c.5.1.9.3,1.3.5,1.1.6,1.9,1.6,2.2,2.8.2.8-.3,1.7-1.1,1.9-.8.2-1.7-.3-1.9-1.1,0-.4-.3-.6-.7-.8-.6-.3-1.5-.4-2.2-.1-.5.2-.7.5-.8.8,0,.3,0,.7.2.9.5.5,1.3.7,2.3.9,1.1.3,2.3.5,3.1,1.4h0Z"/>
</svg>