<?xml version="1.0" encoding="UTF-8"?>
<svg id="Layer_1" xmlns="http://www.w3.org/2000/svg" version="1.1" viewBox="0 0 91 91">
  <!-- Generator: Adobe Illustrator 29.1.0, SVG Export Plug-In . SVG Version: 2.1.0 Build 142)  -->
  <defs>
    <style>
      .st0 {
        fill-rule: evenodd;
                fill: #ccbb88;
      }
    </style>
  </defs>
  <path class="st0" d="M63.8,40.8c-1.8-3.5-3.3-6.4-4.1-9.4-.7-3.2-.6-6.5.8-10.8h0c5.5-12.4,16.1-14.8,28.6-17.5h.3c.2-.1.4,0,.6,0,.4.2.6.7.4,1.1-2.1,4-2.7,9.3-3.4,14.5-1.4,11.5-2.8,22.8-18.8,22.8h0c-.4,0-.8-.4-.8-.8-.3-7.5.3-12.5,2.3-17,.2-.5.5-1.1.8-1.6-1.3,1.7-2.2,3.4-3,5.2-1.5,3.7-2,7.8-2,13.2.3,10.2,2.8,18.9-1.6,28.9-2.9,6.5-7.9,12.1-14.5,15.7-6.6,3.6-14,4.7-21.1,3.6-7-1.1-13.7-4.5-18.9-10-5.1-5.5-8.1-12.4-8.8-19.5-.7-7.1.9-14.4,4.9-20.8,4-6.4,9.9-11,16.6-13.4,6.7-2.5,14.2-2.8,21.4-.5.4.1.7.6.6,1.1-.1.4-.6.7-1.1.6-6.8-2.2-13.9-1.9-20.3.4-6.4,2.3-12,6.7-15.8,12.7-3.8,6-5.3,13-4.7,19.7.6,6.7,3.5,13.3,8.4,18.5,4.9,5.2,11.2,8.4,17.9,9.5,6.7,1.1,13.7,0,20-3.4,6.3-3.4,11-8.7,13.8-14.9,4.3-9.8,1.5-18,1.5-28h0ZM32.8,63.4l-1.3,4.4c-.1.3,0,.7.3,1,.4.3.9.2,1.2-.2l5.2-7.3c.1-.1.2-.3.2-.5,0-.5-.4-.8-.8-.8h-2.7l1.2-4.5c.1-.3,0-.7-.3-.9-.4-.3-.9-.2-1.2.2l-5.1,7.3c-.1.1-.2.3-.2.5,0,.5.4.8.8.8h2.7ZM34.6,71.3c4.8-.2,9.1-2.2,12.2-5.4,3.4-3.4,5.4-8,5.4-13.1s-.4-.8-.8-.8h-8.2v-11.4c0-.5-.4-.8-.8-.8h-3.8c-.5,0-.8.4-.8.8v11.4h-7.9v-11.4c0-.5-.4-.8-.8-.8h-3.9c-.5,0-.8.4-.8.8v11.4h-8.2c-.5,0-.8.4-.8.8,0,5.1,2.1,9.8,5.4,13.1,3.2,3.2,7.5,5.2,12.3,5.4v7.8c0,.5.4.8.8.8s.8-.4.8-.8v-7.8h0ZM50.5,53.6H16.8c.2,4.3,2.1,8.2,4.9,11.1,3,3,7.3,4.9,11.9,4.9s8.9-1.9,11.9-4.9c2.9-2.9,4.7-6.7,4.9-11.1h0Z"/>
</svg>