<?xml version="1.0" encoding="UTF-8"?>
<svg id="Layer_1" xmlns="http://www.w3.org/2000/svg" version="1.1" viewBox="0 0 100 100.6">
  <!-- Generator: Adobe Illustrator 29.1.0, SVG Export Plug-In . SVG Version: 2.1.0 Build 142)  -->
  <path d="M97.1,25.3c-.6-1-1.6-1.6-2.8-1.6h-6.6v-14.8c0-2-1.7-3.7-3.7-3.7h-24.8c-2,0-3.7,1.7-3.7,3.7v14.8h-13.4c-.6-.5-1.2-.9-2-1.1,0-.2,0-.5,0-.8,0-2.8-2.3-5.1-5.1-5.1s-5.1,2.3-5.1,5.1,0,.5,0,.8c-2.5.8-4.2,3.1-4.2,5.8s.2,1.7.5,2.4c-1.9,1.1-3.2,3-3.3,5.2-.3-.2-.7-.3-1-.4,0-.3,0-.7,0-1,0-3.2-2.6-5.7-5.7-5.7s-5.7,2.6-5.7,5.7,0,.7,0,1c-2.9.9-4.9,3.5-4.9,6.6s.2,2,.6,2.9c-2.4,1.3-3.9,3.7-3.9,6.4,0,4.1,3.6,7.5,8.1,7.5s.3,0,.5,0l-5.5,9.6c-.6,1-.6,2.2,0,3.2.6,1,1.6,1.6,2.8,1.6h59.6c2,0,3.8-1,4.8-2.8l24.3-42.1c.6-1,.6-2.2,0-3.2h0ZM57.7,8.9c0-.8.6-1.4,1.4-1.4h24.8c.8,0,1.4.6,1.4,1.4v21.1c0,.8-.6,1.4-1.4,1.4h-9.6c-.6,0-1.1.5-1.1,1.1v11.1h-3.4v-11.1c0-.6-.5-1.1-1.1-1.1h-9.6c-.8,0-1.4-.6-1.4-1.4V8.9h0ZM28.3,32.3c.3-.1.6-.4.7-.7.1-.3,0-.7-.2-1-.5-.7-.7-1.4-.7-2.2,0-2,1.5-3.6,3.4-3.8.4,0,.7-.2.9-.6.2-.3.2-.7,0-1-.2-.4-.2-.8-.2-1.2,0-1.5,1.3-2.8,2.8-2.8s2.8,1.3,2.8,2.8,0,.8-.2,1.2c-.2.3-.1.7,0,1,.2.3.5.5.9.6,2,.2,3.4,1.8,3.4,3.8s-.3,1.6-.7,2.2c-.2.3-.3.7-.2,1s.4.6.7.7c1.8.7,3,2.2,3,4s-2.2,4.3-4.8,4.3-2.9-.6-3.8-1.6v-.7l2.4-2.4c.4-.4.4-1.2,0-1.6-.4-.4-1.2-.4-1.6,0l-.8.8v-5.3l2.4-2.4c.4-.4.4-1.2,0-1.6-.4-.4-1.2-.4-1.6,0l-.8.8v-2.6c0-.6-.5-1.1-1.1-1.1s-1.1.5-1.1,1.1v6.8l-.8-.8c-.4-.4-1.2-.5-1.6,0-.4.4-.5,1.2,0,1.6l2.4,2.4v5.1c-.9,1-2.3,1.6-3.8,1.6-2.7,0-4.8-1.9-4.8-4.3s1.2-3.3,3-4h0ZM4.8,51.5c0-2.1,1.4-4,3.7-4.8.3-.1.6-.4.7-.7.1-.3,0-.7-.2-1-.6-.8-.9-1.7-.9-2.7,0-2.4,1.8-4.4,4.2-4.6.4,0,.7-.2.9-.6s.2-.7,0-1c-.2-.5-.3-.9-.3-1.4,0-1.9,1.6-3.5,3.5-3.5s3.5,1.6,3.5,3.5-.1,1-.3,1.4c-.2.3-.1.7,0,1s.5.5.9.6c2.4.2,4.2,2.2,4.2,4.6s-.3,1.9-.9,2.7c-.2.3-.3.7-.2,1s.4.6.7.7c2.2.8,3.7,2.7,3.7,4.8s-2.6,5.2-5.8,5.2-3.5-.7-4.6-2v-1l2.9-2.9c.4-.4.4-1.2,0-1.6-.4-.4-1.2-.4-1.6,0l-1.3,1.3v-6.8l2.9-2.9c.4-.4.4-1.2,0-1.6-.4-.4-1.2-.4-1.6,0l-1.3,1.3v-3.5c0-.6-.5-1.1-1.1-1.1s-1.1.5-1.1,1.1v8.4l-1.3-1.3c-.4-.4-1.2-.5-1.6,0s-.5,1.2,0,1.6l2.9,2.9v6.1c-1.1,1.3-2.8,2-4.6,2-3.2,0-5.8-2.3-5.8-5.2h0ZM95.1,27.4l-24.3,42.1c-.6,1-1.6,1.6-2.8,1.6H8.4c-.4,0-.6-.2-.8-.5-.2-.3-.2-.6,0-1l6.6-11.4c.4-.2.7-.4,1.1-.6v6.9h-.8c-.6,0-1.1.5-1.1,1.1s.5,1.1,1.1,1.1h3.9c.6,0,1.1-.5,1.1-1.1s-.5-1.1-1.1-1.1h-.8v-6.9c1.3.9,2.9,1.3,4.6,1.3,4.5,0,8.1-3.4,8.1-7.5s-1.5-5.1-3.9-6.4c.4-.9.6-1.9.6-2.9h0c1,.4,2,.7,3.2.7s2.7-.4,3.8-1v5.4h-.5c-.6,0-1.1.5-1.1,1.1s.5,1.1,1.1,1.1h3.3c.6,0,1.1-.5,1.1-1.1s-.5-1.1-1.1-1.1h-.5v-5.4c1.1.6,2.4,1,3.8,1,3.9,0,7.1-2.9,7.1-6.6s-1.3-4.4-3.3-5.6c.3-.8.5-1.6.5-2.4s-.2-1.7-.5-2.4h11.7v4c0,2,1.7,3.7,3.7,3.7h8.4v9.9h-1.8c-.6,0-1.1.5-1.1,1.1s.5,1.1,1.1,1.1h11.5c.6,0,1.1-.5,1.1-1.1s-.5-1.1-1.1-1.1h-1.8v-9.9h8.4c2,0,3.7-1.7,3.7-3.7v-4h6.6c.4,0,.6.2.8.5s.2.6,0,1h0ZM71.5,30c5.8,0,10.6-4.8,10.6-10.6s-4.8-10.6-10.6-10.6-10.6,4.8-10.6,10.6,4.7,10.6,10.6,10.6ZM71.5,11.1c4.6,0,8.3,3.7,8.3,8.3s-3.7,8.3-8.3,8.3-8.3-3.7-8.3-8.3,3.7-8.3,8.3-8.3ZM69.2,21.7c-.1-.6-.8-1-1.4-.8-.6.1-1,.8-.8,1.4.3,1.5,1.6,2.5,3.4,2.9v.6c0,.6.5,1.1,1.1,1.1s1.1-.5,1.1-1.1v-.6c1.5-.2,2.9-1,3.3-2.3.2-.8.2-1.6-.2-2.2-.5-.9-1.5-1.6-3-2,0,0,0,0,0,0v-2.6c.3.1,1,.4,1.1.9.1.6.7,1,1.4.9.6-.1,1-.7.9-1.4-.3-1.2-1.3-2.2-2.8-2.6-.2,0-.4,0-.6-.1v-.6c0-.6-.5-1.1-1.1-1.1s-1.1.5-1.1,1.1v.6c-.9.2-1.8.5-2.4,1.2-.6.7-.9,1.5-.9,2.3,0,.9.5,1.7,1.3,2.3.6.4,1.3.7,2,.9v2.4c-.6-.2-1.1-.5-1.2-1h0ZM73.7,21.7c0,0,.1.2,0,.5,0,.3-.5.5-1.1.7v-1.9c.8.3,1,.6,1.1.7h0ZM69.8,17.7c-.2-.1-.4-.4-.4-.6,0-.2,0-.4.3-.6.2-.2.4-.3.7-.4v1.9c-.2,0-.4-.2-.6-.3Z"/>
</svg>