<?xml version="1.0" encoding="UTF-8"?>
<svg id="Layer_1" xmlns="http://www.w3.org/2000/svg" xmlns:xodm="http://www.corel.com/coreldraw/odm/2003" version="1.1" viewBox="0 0 8.5 8.5">
  <!-- Generator: Adobe Illustrator 29.1.0, SVG Export Plug-In . SVG Version: 2.1.0 Build 142)  -->
  <path d="M4.2,2.8c.2,0,.4,0,.6.2.1.1.2.3.2.6s0,.4-.2.6c-.1.1-.3.2-.6.2s-.4,0-.6-.2h0c-.1-.2-.2-.3-.2-.6s0-.4.2-.6c.1-.1.3-.2.6-.2ZM6.6,1c.2,0,.3,0,.5.2h0c.1.1.2.3.2.5s0,.3-.2.5c-.1.1-.3.2-.5.2s-.3,0-.5-.2c-.1-.1-.2-.3-.2-.5s0-.3.2-.5h0c.1-.1.3-.2.5-.2ZM6.9,1.3c0,0-.2-.1-.3-.1s-.2,0-.3.1h0c0,0-.1.2-.1.3s0,.2.1.3c0,0,.2.1.3.1s.2,0,.3-.1c0,0,.1-.2.1-.3s0-.2-.1-.3c0,0,0,0,0,0ZM1.9,1c.2,0,.3,0,.5.2.1.1.2.3.2.5s0,.3-.2.5c-.1.1-.3.2-.5.2s-.3,0-.5-.2h0c-.1-.1-.2-.3-.2-.5s0-.3.2-.5h0c.1-.1.3-.2.5-.2ZM2.2,1.3c0,0-.2-.1-.3-.1s-.2,0-.3.1c0,0-.1.2-.1.3s0,.2.1.3h0c0,0,.2.1.3.1s.2,0,.3-.1c0,0,.1-.2.1-.3s0-.2-.1-.3ZM3.4,1.2c.2,0,.4,0,.5.2s.2.3.2.5,0,.4-.2.5-.3.2-.5.2-.4,0-.5-.2-.2-.3-.2-.5,0-.4.2-.5.3-.2.5-.2ZM3.8,1.6c0,0-.2-.1-.3-.1s-.3,0-.3.1c0,0-.1.2-.1.3s0,.3.1.3c0,0,.2.1.3.1s.3,0,.3-.1c0,0,.1-.2.1-.3s0-.3-.1-.3ZM5,1.2c.2,0,.4,0,.5.2.1.1.2.3.2.5s0,.4-.2.5h0c-.1.1-.3.2-.5.2s-.4,0-.5-.2c-.1-.1-.2-.3-.2-.5s0-.4.2-.5c.1-.1.3-.2.5-.2ZM5.4,1.6c0,0-.2-.1-.3-.1s-.3,0-.3.1c0,0-.1.2-.1.3s0,.3.1.3c0,0,.2.1.3.1s.2,0,.3-.1h0c0,0,.1-.2.1-.3s0-.3-.1-.3ZM1.1,2.3c.2,0,.3,0,.5.2.1.1.2.3.2.5s0,.3-.2.5c-.1.1-.3.2-.5.2s-.3,0-.5-.2h0c-.1-.1-.2-.3-.2-.5s0-.3.2-.5h0c.1-.1.3-.2.5-.2ZM1.4,2.7c0,0-.2-.1-.3-.1s-.2,0-.3.1c0,0-.1.2-.1.3s0,.2.1.3h0c0,0,.2.1.3.1s.2,0,.3-.1c0,0,.1-.2.1-.3s0-.2-.1-.3ZM7.3,2.3c.2,0,.3,0,.5.2h0c.1.1.2.3.2.5s0,.3-.2.5c-.1.1-.3.2-.5.2s-.3,0-.5-.2c-.1-.1-.2-.3-.2-.5s0-.3.2-.5h0c.1-.1.3-.2.5-.2ZM7.6,2.7c0,0-.2-.1-.3-.1s-.2,0-.3.1h0c0,0-.1.2-.1.3s0,.2.1.3c0,0,.2.1.3.1s.2,0,.3-.1c0,0,.1-.2.1-.3s0-.2-.1-.3c0,0,0,0,0,0ZM6.5,4.1c0-.1,0-.2.2-.3h0c.1-.1.3-.2.5-.2h.5c.2,0,.3,0,.5.2.1.1.2.3.2.5v1.4c0,0,0,.1-.1.1h-1.3v.9c0,0,0,.1-.1.1h-1.4v.5c0,0,0,.1-.1.1h-1.9c0,0-.1,0-.1-.1v-.5h-1.4c0,0-.1,0-.1-.1v-.9H.3c0,0-.1,0-.1-.1v-1.4c0-.2,0-.3.2-.5.1-.1.3-.2.5-.2h.5c.2,0,.3,0,.5.2,0,0,.1.2.2.3,0,0,.2,0,.3,0h.6c.2,0,.4,0,.5.2,0,0,.2.2.2.3.1,0,.2,0,.3,0h.6c.1,0,.2,0,.3,0,0-.1.1-.2.2-.3.1-.1.3-.2.5-.2h.6c.1,0,.2,0,.3,0ZM6.9,5.6h1.1v-1.3c0-.1,0-.2-.1-.3s-.2-.1-.3-.1h-.5c-.1,0-.2,0-.3.1h0c0,0-.1.2-.1.3.1.1.2.3.2.5v.8ZM1.8,4.3c0,0,0-.2-.1-.3,0,0-.2-.1-.3-.1h-.5c-.1,0-.2,0-.3.1,0,0-.1.2-.1.3v1.3h1.1v-.8c0-.2,0-.4.2-.5ZM2.6,2.6c.2,0,.4,0,.5.2.1.1.2.3.2.5s0,.4-.2.5c-.1.1-.3.2-.5.2s-.4,0-.5-.2c-.1-.1-.2-.3-.2-.5s0-.4.2-.5c.1-.1.3-.2.5-.2ZM2.9,3c0,0-.2-.1-.3-.1s-.3,0-.3.1-.1.2-.1.3,0,.3.1.3.2.1.3.1.3,0,.3-.1.1-.2.1-.3,0-.3-.1-.3ZM5.9,2.6c.2,0,.4,0,.5.2.1.1.2.3.2.5s0,.4-.2.5h0c-.1.1-.3.2-.5.2s-.4,0-.5-.2c-.1-.1-.2-.3-.2-.5s0-.4.2-.5c.1-.1.3-.2.5-.2ZM6.2,3c0,0-.2-.1-.3-.1s-.3,0-.3.1c0,0-.1.2-.1.3s0,.3.1.3c0,0,.2.1.3.1s.2,0,.3-.1h0c0,0,.1-.2.1-.3s0-.3-.1-.3ZM5.3,6.6h1.3v-1.8c0-.1,0-.2-.1-.3,0,0-.2-.1-.3-.1h-.6c-.1,0-.2,0-.3.1,0,0-.1.2-.1.3.1.1.2.3.2.5,0,0,0,1.3,0,1.3ZM3.4,4.7c0-.1,0-.2-.1-.3,0,0-.2-.1-.3-.1h-.6c-.1,0-.2,0-.3.1,0,0-.1.2-.1.3v1.8h1.3v-1.3c0-.2,0-.4.2-.5ZM4.6,3.2c0,0-.2-.2-.4-.2s-.3,0-.4.2c0,0-.2.2-.2.4s0,.3.2.4h0c0,.1.2.2.4.2s.3,0,.4-.2c0,0,.2-.2.2-.4s0-.3-.2-.4ZM4.5,4.7h-.6c-.1,0-.3,0-.4.2,0,0-.2.2-.2.4v2h1.7v-2c0-.1,0-.3-.1-.4h0c0-.1-.2-.2-.4-.2Z"/>
</svg>