<?xml version="1.0" encoding="UTF-8"?>
<svg id="Layer_1" xmlns="http://www.w3.org/2000/svg" version="1.1" viewBox="0 0 90 90">
  <!-- Generator: Adobe Illustrator 29.1.0, SVG Export Plug-In . SVG Version: 2.1.0 Build 142)  -->
  <defs>
    <style>
      .st0 {
        fill-rule: evenodd;
      }
    </style>
  </defs>
  <path class="st0" d="M40.2,35.2l3.6,7.7c.5,1.1,2,1.1,2.6,0l3.7-7.7h10.9c4.4,0,7.9-3.6,7.9-8V7.9C68.8,3.6,65.2,0,60.9,0h-31.7C24.8,0,21.2,3.6,21.2,7.9v19.4c0,4.3,3.6,7.9,8,7.9h11s0,0,0,0ZM49.4,17.1c1.1,1.1,1.8,2.7,1.8,4.4,0,3.5-2.9,6.3-6.3,6.2-5.7-.1-8.2-6.8-4.4-10.7,2.4-2.4,6.4-2.4,8.8,0h0ZM36.1,24c-.9-.7-1.9-1.6-2.8-2.5,1-.9,1.9-1.8,2.8-2.5-.5,1.6-.5,3.4,0,5h0ZM53.8,18.6c1,.8,2,1.7,3,2.8-1,1.1-2,2-3,2.8.6-1.8.6-3.8,0-5.7h0ZM45.3,12.2c5.7,0,10.4,3.4,14.7,8.3.5.6.5,1.4,0,2-4.2,4.9-9,8.2-14.7,8.3-6.1,0-11.4-4.1-15.3-8.2-.5-.6-.6-1.5,0-2.1,3.7-4,9.4-8.4,15.3-8.2h0ZM46.5,9c0,.8-.7,1.5-1.5,1.5-.8,0-1.5-.7-1.5-1.5v-3.1c0-.8.7-1.5,1.6-1.5.8,0,1.5.7,1.5,1.5v3.1h0,0ZM53.2,11.2c-.4.7-1.4,1-2.1.5-.7-.4-1-1.4-.5-2.1l1.4-2.3c.4-.7,1.4-1,2.1-.5.7.4,1,1.4.5,2.1l-1.4,2.3h0ZM39.4,9.7c.4.7.2,1.7-.5,2.1-.7.4-1.7.2-2.1-.5l-1.4-2.3c-.4-.7-.2-1.7.5-2.1.7-.4,1.7-.2,2.1.5l1.4,2.3h0ZM51.5,88.6v-13.4c0-6.5,5.3-11.8,11.8-11.8h14.8c6.5,0,11.8,5.3,11.8,11.8v13.4c0,.8-.6,1.4-1.4,1.4h-35.7c-.8,0-1.4-.6-1.4-1.4h0ZM0,88.6v-13.4C0,68.7,5.3,63.4,11.8,63.4h14.8c6.5,0,11.8,5.3,11.8,11.8v13.4c0,.8-.6,1.4-1.4,1.4H1.4c-.8,0-1.4-.6-1.4-1.4H0ZM19.2,35.2c7.2,0,13,5.8,13,13s-5.8,13-13,13-13-5.8-13-13,5.8-13,13-13h0ZM70.8,35.2c7.2,0,13,5.8,13,13s-5.8,13-13,13-13-5.8-13-13,5.8-13,13-13Z"/>
</svg>