<?xml version="1.0" encoding="UTF-8"?>
<svg id="Layer_1" xmlns="http://www.w3.org/2000/svg" version="1.1" viewBox="0 0 95 95">
  <!-- Generator: Adobe Illustrator 29.1.0, SVG Export Plug-In . SVG Version: 2.1.0 Build 142)  -->
  <defs>
    <style>
      .st0 {
        fill-rule: evenodd;
                fill: #ccbb88;
      }
    </style>
  </defs>
  <path class="st0" d="M0,45.1v-27c0-.6.3-1,.8-1.3s1-.3,1.5,0l20.1,12.5c.7.4.9,1.3.5,2l-12.5,21.8c-.2.4-.5.6-.9.7-.4,0-.8,0-1.1-.2l-5.5-3.4c-1.9-1.1-2.9-2.9-2.9-5.1h0ZM92.2,49.6l-5.5,3.4c-.4.2-.7.3-1.1.2s-.7-.3-.9-.7l-12.6-21.8c-.4-.7-.2-1.6.5-2l20.1-12.4c.5-.3,1-.3,1.5,0s.8.7.8,1.3v27c0,2.1-1,3.9-2.8,5h0ZM19.9,55.8c-1.1.4-3.3,3.3-3.3,4.6-.1,2,2,4.1,4.1,3.4.8-.3,3.6-3.7,3.6-4.9.2-2.3-2.2-4.3-4.4-3.1h0ZM38.3,70l-2.8,4c-1.7,3.5,2,5.4,4.3,4,.5-.3,3.6-4.3,3.9-5.1,1-2.7-3.1-6.1-5.4-2.9ZM34.1,62.9c-1.2.6-4.3,5.5-5.2,6.7-2.5,3.5,1.7,6.1,3.9,4.6.7-.4,3.9-4.9,4.7-6.1,2.4-3.3-1-6.5-3.4-5.2ZM29.2,56.5c-1.2.5-5.7,6.7-6.9,8.6-2.3,3.4,1.6,6.6,4.3,4.5,1-.8,4.1-5.7,5-6.8.8-1.1,2.2-2.3,1.4-4.3-.5-1.2-2.2-2.7-3.8-2h0ZM76.4,55c1.2-1,2.9-2.6,4-3.7.5-.5.6-1.2.2-1.8l-7.7-13.8c-.6-1-1.6-2.6-2.3-3.9-.3-.6-1-.9-1.6-.8-9.8,2-15.1-6.7-26.4-3.3-2.7.8-10.2,10.6-12.1,14.7-.3.6,0,1.4.4,1.8,7.2,5.6,8.4-11.4,18.6-5.9,9.4,5.1,16.6,10.1,24.9,16.7.7.4,1.5.4,2,0h0ZM36.2,60.9c2.3.5,3.7,2.3,3.9,4.8,0,.7.5,1.2,1.2,1.3,2.9.6,4.6,3.2,4.2,5.9,0,.3,0,.6-.2.7-.3.7,0,1.5.8,1.9,1.8.8,4,1.8,5.3,2.3,2.8,1.1,7-2.3,3.4-4.4l-5.7-2.8c-1.5-.4-1.4-2.3.5-1.9.8.2,1.7.8,2.4,1.2,2,1,3.8,2.1,5.5,2.9,4.2,2,7.7-2.5,4.5-4.4-1.5-.9-3.4-1.9-4.5-2.6-1-.6-2.1-1.2-3.1-1.8-1-.6-2.9-1.2-2.1-2.4.8-.9,3,.9,4.7,1.9,1.5.8,5.5,2.9,7,3.8,4.1,2.5,8-.9,4.2-4.3-.5-.6-11.1-6.9-12.4-7.5-1.4-1.2,0-2.4,1.1-1.7l15.4,10.2c3.6,1.5,7-2.8,4.1-5.5-7.8-6-15.8-12.3-24.8-17.1-1.5-.9-4.1-2.3-4.9-2.6-3.4-1-7.3,5.3-9.4,7.1-3.2,1.7-7.1.7-8.5-1.4-1.3-2.1,1.7-5.9,3.8-8.7.3-.4.4-1,.2-1.5s-.6-.8-1.1-.9c-.9,0-1.7-.3-2.6-.5-1.3-.3-2-.8-2.8-1.3-.4-.2-.7-.3-1.1-.2s-.7.3-.9.7c-2.2,3.7-8.3,14.6-10.1,18-.3.6-.2,1.2.2,1.7.9.9,1.6,1.9,2.3,2.9.2.3.7.4,1,.2,2.7-1.7,6-1.7,7.9,1.4.1.2.4.4.6.4.3,0,.5,0,.6-.3l.5-.7c2.6-2.7,7.5-.5,7.6,3.8.2.7.7,1.3,1.3,1.4h0Z"/>
</svg>