<?xml version="1.0" encoding="UTF-8"?>
<svg id="Layer_1" xmlns="http://www.w3.org/2000/svg" version="1.1" viewBox="0 0 90 90">
  <!-- Generator: Adobe Illustrator 29.1.0, SVG Export Plug-In . SVG Version: 2.1.0 Build 142)  -->
  <defs>
    <style>
      .st0 {
        fill-rule: evenodd;
      }
    </style>
  </defs>
  <path class="st0" d="M46.4,10.6h-3.1l-2.2,2.2v3.3h0c0,.6-.4,1.1-1,1.2-4.1.7-8,2.3-11.4,4.7-.5.4-1.2.4-1.6,0l-2.4-2.4h-3.1l-2.2,2.2v3.1l2.4,2.4h0c.4.4.5,1.1.1,1.5-2.4,3.4-4,7.3-4.8,11.4,0,.6-.6,1.1-1.2,1.1h-3.4l-2.2,2.2v3.1l2.2,2.2h3.3c.6,0,1.1.4,1.2,1,.7,4.1,2.3,8,4.7,11.4.4.5.4,1.2,0,1.6l-2.4,2.4v3.1l2.2,2.2h3.1l2.4-2.4h0c.4-.4,1.1-.5,1.5-.1,3.4,2.4,7.3,4,11.4,4.8.6,0,1.1.6,1.1,1.2v3.3l2.2,2.2h3.1l2.2-2.2v-3.3h0c0-.6.4-1.1,1-1.2,4.1-.7,8-2.3,11.4-4.7.5-.4,1.2-.4,1.6,0l2.4,2.4h3.1l2.2-2.2v-3.1l-2.4-2.4h0c-.4-.4-.5-1.1-.1-1.5,2.4-3.4,4-7.3,4.8-11.4,0-.6.6-1.1,1.2-1.1h3.3l2.2-2.2v-3.1l-2.2-2.2h-3.3c-.6,0-1.1-.4-1.2-1-.7-4.1-2.3-8-4.7-11.4-.4-.5-.4-1.2,0-1.6l2.4-2.4v-3.1l-2.2-2.2h-3.1l-2.4,2.4h0c-.4.4-1.1.5-1.5.1-3.4-2.4-7.3-4-11.4-4.8-.6,0-1.1-.6-1.1-1.2v-3.3l-2.2-2.2ZM44.9,24.2c11.5,0,20.9,9.3,20.9,20.9,0,11.5-9.3,20.9-20.9,20.9-11.5,0-20.9-9.3-20.9-20.9,0-5.5,2.2-10.8,6.1-14.8,3.9-3.9,9.2-6.1,14.8-6.1ZM46.1,43.8c.7.7.7,1.8,0,2.5-.7.7-1.8.7-2.5,0-.7-.7-.7-1.8,0-2.5.3-.3.8-.5,1.3-.5.5,0,.9.2,1.3.5ZM43.7,29.9v-1.2h2.4v2.4h-2.4v-1.2h0ZM29.6,46.3h-1.2v-2.4h2.4v2.4h-1.2ZM46.1,60.3v1.2h-2.4v-2.4h2.4v1.2ZM60.1,43.9h1.2v2.4h-2.4v-2.4h1.2ZM43.6,34.4c0-.7.5-1.2,1.2-1.2s1.2.5,1.2,1.2h0v6.7c2.2.7,3.5,3,2.8,5.2,0,.2-.1.4-.2.5l3,2.7c.5.4.6,1.2.2,1.7-.4.5-1.2.6-1.7.2,0,0,0,0,0,0l-3-2.7c-1.9,1.2-4.5.7-5.8-1.3-1.2-1.9-.7-4.5,1.3-5.8.3-.2.7-.4,1-.5v-6.7h0ZM79.5,70c.5-.6.9-1.3,1.3-1.9.4-.6,1.1-.7,1.7-.4s.7,1.1.4,1.7h0c-.4.7-.9,1.4-1.4,2-.4.5-1.1.7-1.7.3-.5-.4-.7-1.1-.3-1.7ZM73.2,76.9c.6-.5,1.2-1,1.7-1.6.5-.5,1.2-.5,1.7,0s.5,1.2,0,1.7h0c-.6.6-1.2,1.1-1.8,1.7-.5.4-1.3.4-1.7,0-.4-.5-.4-1.3,0-1.7h0ZM65.6,82.3c-.6.3-.8,1-.5,1.6s1,.8,1.6.5c0,0,0,0,0,0,.7-.4,1.4-.8,2.1-1.3.6-.4.7-1.1.3-1.7-.4-.5-1.1-.7-1.6-.4-.7.4-1.3.8-2,1.2h0ZM57.1,86c-.6.2-1,.8-.8,1.5s.8,1,1.5.8c0,0,0,0,0,0,.8-.2,1.6-.5,2.3-.8.6-.2.9-.9.7-1.6-.2-.6-.9-.9-1.5-.7-.7.3-1.5.5-2.2.7h0ZM47.9,87.6c-.7,0-1.2.6-1.1,1.3,0,.7.6,1.2,1.3,1.1h0c.8,0,1.6-.1,2.4-.2.7,0,1.1-.6,1.1-1.3,0-.7-.6-1.1-1.3-1.1,0,0,0,0,0,0-.8,0-1.5.2-2.3.2h0ZM38.6,87.3c-.7,0-1.3.4-1.3,1.1,0,.6.4,1.2,1,1.3h.3s.3,0,.3,0h.3s.3,0,.3,0h.3s.3,0,.3,0h.3s.3,0,.3,0h.1c.7,0,1.2-.5,1.3-1.1,0-.6-.4-1.2-1-1.3h-.1s-.3,0-.3,0h-.3s-.3,0-.3,0h-.3s-.3,0-.3,0h-.3s-.3,0-.3,0c0,0-.3,0-.3,0ZM29.6,84.9c-.6-.3-1.3,0-1.6.6-.3.6,0,1.3.6,1.6,0,0,0,0,.1,0h.1c0,0,.3.2.3.2h.3c0,0,.3.2.3.2h.3c0,0,.3.2.3.2h.3c0,0,.3.2.3.2h.4c.6.3,1.3,0,1.5-.6.2-.6,0-1.3-.7-1.5,0,0,0,0,0,0h-.3c0-.1-.2-.2-.2-.2h-.2c0,0-.2-.2-.2-.2h-.2c0,0-.2-.2-.2-.2h-.2c0,0-.2-.2-.2-.2h-.1c0,0,0,0,0,0ZM21.3,80.6c-.6-.3-1.3-.1-1.6.4-.3.5-.2,1.2.3,1.6h.2c0,0,.2.2.2.2h.2c0,.1.2.3.2.3h.2c0,.1.2.3.2.3h.2c0,.1.2.3.2.3l.3.2c.6.3,1.3,0,1.6-.5.3-.5.1-1.2-.4-1.6l-.3-.2h-.2c0-.1-.2-.3-.2-.3h-.2c0-.1-.2-.3-.2-.3h-.2c0-.1-.2-.3-.2-.3h-.2c0-.1-.2-.2-.2-.2h0ZM14.2,74.7l.2.2.2.2.2.2.2.2.2.2.2.2.2.2.2.2.2.2c.5.4.6,1.2.1,1.7-.4.5-1.2.6-1.7.1,0,0,0,0,0,0l-.2-.2-.2-.2-.2-.2-.2-.2-.2-.2-.2-.2-.2-.2-.2-.2-.2-.2c-.5-.5-.5-1.2,0-1.7.5-.5,1.2-.5,1.7,0,0,0,0,0,0,0h0ZM8.5,67.3c-.4-.6-1.1-.7-1.7-.3-.5.3-.7,1-.4,1.6h0c0,.1.1.4.1.4v.2c.1,0,.3.2.3.2v.2c.1,0,.3.2.3.2v.2c.1,0,.3.2.3.2l.2.2h0c.4.7,1.1.8,1.7.5.6-.4.7-1.1.4-1.7,0,0,0,0,0,0l-.2-.3v-.2c-.1,0-.3-.2-.3-.2v-.2c-.1,0-.3-.2-.3-.2v-.2c-.1,0-.3-.2-.3-.2v-.2c-.1,0-.2-.1-.2-.1ZM4.5,58.9c-.2-.6-.9-1-1.5-.8-.6.2-1,.9-.8,1.5,0,0,0,0,0,0v.2c0,0,.1.3.1.3v.3c0,0,.2.3.2.3v.3c0,0,.2.3.2.3v.3c0,0,.2.3.2.3v.3c.4.6,1.1.9,1.7.6.6-.3.8-.9.6-1.5v-.3c-.1,0-.2-.2-.2-.2v-.2c0,0-.2-.2-.2-.2v-.2c0,0-.2-.2-.2-.2v-.2c0,0-.2-.3-.2-.3v-.2c0,0,0,0,0,0ZM2.5,49.8c0-.7-.6-1.2-1.3-1.1s-1.2.6-1.1,1.3c0,0,0,0,0,0v.2s0,.3,0,.3v.3s0,.3,0,.3v.3s0,.3,0,.3v.3s0,.3,0,.3v.2c.1.7.7,1.1,1.4,1,.7,0,1.1-.7,1-1.3,0,0,0,0,0,0v-.2s0-.3,0-.3v-.3s0-.3,0-.3v-.3s0-.3,0-.3v-.3s0-.3,0-.3v-.2s0,0,0,0ZM62.2,9.6c.3.6,0,1.3-.6,1.6-.6.3-1.3,0-1.6-.6,0,0,0,0,0-.1l-2.3-6.5c-.2-.6.1-1.3.7-1.5L64.8,0c.6-.3,1.3,0,1.6.6.3.6,0,1.3-.6,1.6,0,0,0,0-.1,0l-3.4,1.2c23,9.6,33.8,36,24.2,58.9-.2.4-.3.8-.5,1.1-.3.6-1,.8-1.6.5-.5-.3-.8-.9-.6-1.5,1.2-2.7,2.2-5.6,2.8-8.5,4.4-20.3-6.5-40.8-25.8-48.6l1.4,4Z"/>
</svg>