<?xml version="1.0" encoding="UTF-8"?>
<svg id="Layer_1" data-name="Layer 1" xmlns="http://www.w3.org/2000/svg" viewBox="0 0 73.7184 54.8741">
  <defs>
    <style>
      .cls-1 {
        fill: #336622;
        stroke-width: 0px;
      }
    </style>
  </defs>
  <path class="cls-1" d="M73.7184,47.3986v6.3237c0,.6335-.5068,1.1518-1.1518,1.1518H1.1518c-.6335,0-1.1518-.5183-1.1518-1.1518v-6.3237c0-.645.5183-1.1518,1.1518-1.1518h71.4147c.645,0,1.1518.5068,1.1518,1.1518Z"/>
  <path class="cls-1" d="M73.7184,8.4085v6.3237c0,.6335-.5068,1.1518-1.1518,1.1518H1.1518c-.6335,0-1.1518-.5183-1.1518-1.1518v-6.3237c0-.6335.5183-1.1518,1.1518-1.1518h71.4147c.645,0,1.1518.5183,1.1518,1.1518Z"/>
  <path class="cls-1" d="M65.1601,1.1518v3.8011h-9.5373V1.1518c0-.6335.5067-1.1518,1.1518-1.1518h7.2336c.645,0,1.1518.5183,1.1518,1.1518Z"/>
  <path class="cls-1" d="M18.1071,1.1518v3.8011h-9.5488V1.1518c0-.6335.5183-1.1518,1.1518-1.1518h7.2451c.6335,0,1.1518.5183,1.1518,1.1518Z"/>
  <path class="cls-1" d="M36.6908,30.3237c-.1508-.2987-.1643-.6479-.0371-.9567l2.027-4.9268-6.5377,6.3768,3.8965,1.8397c.2767.1305.4893.365.5927.653.1034.2874.0878.604-.0427.8802l-1.6052,3.4009,6.2373-5.7177-3.7841-.9511c-.3238-.0815-.5961-.2997-.7467-.5984Z"/>
  <path class="cls-1" d="M3.2713,18.1877v25.7554h67.1874v-25.7554H3.2713ZM23.8778,32.8392h-7.6252v-2.3037h7.6252v2.3037ZM44.3577,32.1251l-12.1405,11.1269c-.2189.1958-.4953.2995-.7833.2995-.2304,0-.4723-.0691-.6796-.2188-.4377-.334-.599-.9215-.3571-1.4168l3.6168-7.6713-4.354-2.0503c-.3456-.1613-.5874-.4838-.645-.8524s.0576-.7487.334-1.0136l11.7143-11.4263c.3916-.3801,1.0021-.4377,1.4513-.1382.4492.311.622.8984.4147,1.3937l-3.6398,8.8577,4.5728,1.1403c.4031.1037.7257.4262.8293.8408.1037.4147-.023.8409-.334,1.1288ZM57.4658,32.8392h-1.9581v2.6608h-2.3037v-2.6608h-3.3634v-2.3037h3.3634v-2.6608h2.3037v2.6608h1.9581v2.3037Z"/>
</svg>