<?xml version="1.0" encoding="UTF-8"?>
<svg id="Layer_1" data-name="Layer 1" xmlns="http://www.w3.org/2000/svg" viewBox="0 0 60.5781 47.1318">
  <defs>
    <style>
      .cls-1 {
        fill: #336622;
        stroke-width: 0px;
      }
    </style>
  </defs>
  <path class="cls-1" d="M24.5296,7.7201h11.594l.6143,2.1158h-12.8225l.6143-2.1158ZM25.6434,3.8932h9.3671l-.3068-1.0572h-8.7529l-.3075,1.0572ZM21.5118,18.1961h17.6295l-.9218-3.1725h-15.7853l-.9225,3.1725ZM18.1928,29.6145h24.269l-1.2299-4.2312h-21.8091l-1.2299,4.2312ZM46.4932,43.3008l-1.8212-6.2633H15.982l-1.8199,6.2633h-.2191v.0832h32.7401v-.0832h-.1899ZM46.4639,43.3794l.0014.0046-.0014-.0046ZM51.167,47.1318h9.4111L38.558,0h-2.6497l15.2587,47.1318ZM24.7612,0h-2.7411L0,47.1318h9.5938L24.7612,0Z"/>
</svg>