<?xml version="1.0" encoding="UTF-8"?>
<svg id="Layer_1" data-name="Layer 1" xmlns="http://www.w3.org/2000/svg" viewBox="0 0 91.4117 61.4936">
  <defs>
    <style>
      .cls-1 {
        fill: #336622;
        stroke-width: 0px;
      }
    </style>
  </defs>
  <path class="cls-1" d="M69.9672,17.4255c-2.6393,0-4.7884,2.149-4.7884,4.7883s2.149,4.7884,4.7884,4.7884,4.7816-2.149,4.7816-4.7884c0-2.6393-2.1423-4.7883-4.7816-4.7883ZM70.0411,24.1345c-1.0611.047-1.961-.7791-2.0013-1.8468-.0403-1.0611.7858-1.9543,1.8468-1.9946,1.0678-.047,1.961.7857,2.0013,1.8468.0403,1.0611-.7857,1.961-1.8468,1.9946Z"/>
  <path class="cls-1" d="M77.7575,22.2138c0-4.2981-3.4922-7.7903-7.7903-7.7903-4.3048,0-7.7903,3.4922-7.7903,7.7903,0,4.2878,3.4586,7.7604,7.74,7.7878h-8.1169l1.1633,4.1328h28.4485v-4.1328h-21.3942c4.2747-.0274,7.74-3.5,7.74-7.7878ZM69.9672,28.0095c-3.1967,0-5.7957-2.599-5.7957-5.7957s2.599-5.7957,5.7957-5.7957c3.19,0,5.789,2.599,5.789,5.7957,0,3.1967-2.599,5.7957-5.789,5.7957Z"/>
  <polygon class="cls-1" points="28.0717 35.4775 0 35.4775 0 39.6011 26.911 39.6011 28.0717 35.4775"/>
  <polygon class="cls-1" points="0 61.4936 20.7484 61.4936 21.9108 57.3645 0 57.3645 0 61.4936"/>
  <path class="cls-1" d="M0,56.0213h22.2873c.0192-.068,1.2403-4.4006,1.1642-4.1305H0v4.1305Z"/>
  <path class="cls-1" d="M24.9917,46.4175H0v4.1301h23.8296c.0191-.068,1.2381-4.4003,1.1621-4.1301Z"/>
  <path class="cls-1" d="M26.5329,40.9443H0v4.1301h25.3698c.0192-.068,1.2392-4.4003,1.1631-4.1301Z"/>
  <path class="cls-1" d="M66.0432,45.0744h25.3685v-4.1301h-26.5317c.0192.068,1.2393,4.4003,1.1632,4.1301Z"/>
  <path class="cls-1" d="M60.4257,30.078h-3.7583c.0153.0814,5.8694,31.2586,5.8852,31.3428h6.6961c-8.4485-29.9973-8.8356-31.3875-8.823-31.3428Z"/>
  <polygon class="cls-1" points="64.502 39.6011 91.4117 39.6011 91.4117 35.4775 63.3413 35.4775 64.502 39.6011"/>
  <path class="cls-1" d="M69.1257,56.0213h22.286v-4.1305h-23.4504c.0192.068,1.2406,4.4006,1.1644,4.1305Z"/>
  <path class="cls-1" d="M67.5832,50.5477h23.8285v-4.1301h-24.9904c.0225.0798,1.2379,4.4003,1.1619,4.1301Z"/>
  <polygon class="cls-1" points="70.6643 61.4936 91.4117 61.4936 91.4117 57.3645 69.502 57.3645 70.6643 61.4936"/>
  <polygon class="cls-1" points="38.3012 61.4189 45.0341 61.4189 45.0341 30.077 41.2443 30.077 38.3012 61.4189"/>
  <polygon class="cls-1" points="36.1129 30.078 30.2268 61.4208 36.9505 61.4208 39.8922 30.078 36.1129 30.078"/>
  <path class="cls-1" d="M50.17,30.077h-2.3346c2.788-.1493,5.0066-2.4526,5.0066-5.2776,0-2.9214-2.3707-5.292-5.292-5.292s-5.292,2.3706-5.292,5.292c0,2.825,2.2186,5.1283,5.0066,5.2776h-.8873v31.3419h6.7344c-.2622-2.7933-2.6241-27.9586-2.9417-31.3419ZM45.5553,24.8061c0-1.1014.8932-1.9946,1.9946-1.9946s1.9946.8932,1.9946,1.9946c0,1.0947-.8932,1.9878-1.9946,1.9878s-1.9946-.8932-1.9946-1.9878Z"/>
  <path class="cls-1" d="M34.746,30.078h-3.7586c-.6745,2.4156-8.8021,31.2675-8.8233,31.3428h6.696c1.9564-10.4177,3.9356-20.957,5.8859-31.3428Z"/>
  <path class="cls-1" d="M55.2999,30.077h-3.7809c.4204,4.479,2.5197,26.8452,2.9417,31.3419h6.7227c-.0656-.3494-5.8644-31.24-5.8835-31.3419Z"/>
  <path class="cls-1" d="M18.5108,20.627c1.2215.0854,2.3541-.2758,3.2584-.9368.0095-.0069.0209-.0089.0305-.0155v10.3269H0v4.1328h28.4498l1.1633-4.1328h-6.4702v-10.3279c.0108.0074.0236.0098.0343.0175.902.6611,2.036,1.022,3.2585.9355,2.3651-.1672,4.3235-2.0873,4.532-4.4491.1943-2.2009-1.061-4.1322-2.9143-4.9475-.4414-.1942-.7053-.655-.6819-1.1366.0039-.0797.0059-.16.0059-.2409,0-2.7169-2.1986-4.9155-4.9093-4.9155s-4.9093,2.1986-4.9093,4.9155c0,.0816.002.1626.006.243.024.4818-.2404.9423-.6817,1.1371-1.8511.8172-3.1038,2.7485-2.9081,4.9484.2102,2.3618,2.1704,4.2805,4.5359,4.4459ZM25.4956,13.7045c.4968,0,.8955.4053.8955.9021s-.3988.8955-.8955.8955-.9021-.3987-.9021-.8955.4053-.9021.9021-.9021ZM23.0341,9.0439c.5392,0,.972.4399.972.9792s-.4329.972-.972.972-.9791-.4328-.9791-.972.4399-.9792.9791-.9792Z"/>
  <path class="cls-1" d="M53.4061,21.6967h.7454c.2888.6649.4768,1.3834.5306,2.1423.0403.6313-.0134,1.2693-.1612,1.8871-.0672.2686.1007.5373.3761.6044.0336.0067.0739.0134.1142.0134.2283,0,.4365-.1545.4902-.3895.1679-.7119.2351-1.4439.1813-2.1826-.047-.7253-.2015-1.4237-.4433-2.0752h5.6144c.2619-4.7951,4.2511-8.6164,9.1133-8.6164,3.3512,0,6.286,1.8133,7.8709,4.5063l-2.1692-6.9307c-.1075-.2351-.3425-.3895-.6112-.3895h-1.0141l-1.6387-8.5492c-.1612-.8395-.8999-1.4506-1.7595-1.4506h-10.067c-.8596,0-1.6051.6112-1.7663,1.4506l-1.6319,8.5492h-2.5587v-4.8085c0-.3694-.3022-.6716-.6716-.6716h-.8596V1.368c-.0202-.1209-.1142-.7454-.6447-1.1215-.2284-.1612-.6178-.3291-1.1887-.2015-.3626.0806-.591.4365-.5104.7992.0806.3626.4365.591.7992.5104.0739-.0201.1209-.0134.1276-.0067.0202.0134.0605.094.0739.1545v3.284h-.8529c-.3761,0-.6716.3022-.6716.6716v4.8085h-3.8616c-.9872.0067-1.7864.8059-1.7864,1.7931v6.8165c.8932-.4567,1.9005-.7119,2.9751-.7119,2.5385,0,4.7481,1.4305,5.8561,3.5325ZM69.9336,3.9603l1.0611,6.474h-5.0167l-.094-6.474h4.0496ZM60.5249,8.6076l.7656-4.6474h3.5795v6.7561l-3.8549,3.5527c-.4836,0-.8798-.3963-.8798-.8798,0-1.5984.1343-3.2102.3895-4.7816ZM52.2644,13.0535c0-.2754.2284-.5037.5037-.5037.2821,0,.5037.2283.5037.5037v2.1154c0,.2754-.2216.5037-.5037.5037-.2753,0-.5037-.2283-.5037-.5037v-2.1154ZM50.2967,13.0535c0-.2754.2216-.5037.5037-.5037.2754,0,.5037.2283.5037.5037v2.1154c0,.2754-.2283.5037-.5037.5037-.2821,0-.5037-.2283-.5037-.5037v-2.1154ZM48.3222,13.0535c0-.2754.2284-.5037.5037-.5037s.5037.2283.5037.5037v2.1154c0,.2754-.2283.5037-.5037.5037s-.5037-.2283-.5037-.5037v-2.1154Z"/>
</svg>