<?xml version="1.0" encoding="UTF-8"?>
<svg id="Layer_1" data-name="Layer 1" xmlns="http://www.w3.org/2000/svg" viewBox="0 0 59.7099 55.5064">
  <defs>
    <style>
      .cls-1 {
        fill: #336622;
        stroke-width: 0px;
      }
    </style>
  </defs>
  <path class="cls-1" d="M13.459,50.4797h2.6781l1.128-6.4678,12.5577-11.8303,12.5596,11.8303,1.128,6.4678h2.6781l-6.6448-38.0926h20.1662L46.688,0H13.0219L0,12.387h20.1038l-6.6448,38.0926ZM18.0203,39.6767l2.7889-15.9853,7.0913,6.6801-9.8803,9.3052ZM21.6337,20.8439l8.1898-7.7161,8.1904,7.7161-8.1898,7.7149-8.1904-7.7149ZM41.626,39.6748l-9.8778-9.304,7.0907-6.6801,2.787,15.984ZM47.1472,4.0776l5.9639,5.6723h-11.9858l6.0219-5.6723ZM44.83,2.6371l-6.0005,5.6522-.9844-5.6522h6.9849ZM37.6505,16.8778l-5.9035-5.5608,4.2382-3.9919,1.6653,9.5528ZM24.4806,2.6371h10.6865l.2746,1.5759-5.6175,5.2919-5.6175-5.2919.274-1.5759ZM23.6637,7.3244l4.2369,3.9919-5.9035,5.5621,1.6666-9.554ZM6.5988,9.7499l5.9343-5.6452,5.9929,5.6452H6.5988ZM14.8214,2.6371h6.9824l-.9851,5.6497-5.9973-5.6497Z"/>
  <rect class="cls-1" x="10.1643" y="52.9549" width="39.3819" height="2.5515"/>
  <rect class="cls-1" x=".4434" y="13.3595" width="3.5706" height="1.5267"/>
  <rect class="cls-1" x=".4434" y="15.8543" width="3.5706" height="1.5267"/>
  <rect class="cls-1" x=".4434" y="18.3485" width="3.5706" height="1.5267"/>
  <rect class="cls-1" x="8.4726" y="13.3595" width="3.5706" height="1.5267"/>
  <rect class="cls-1" x="8.4726" y="15.8543" width="3.5706" height="1.5267"/>
  <rect class="cls-1" x="8.4726" y="18.3485" width="3.5706" height="1.5267"/>
  <rect class="cls-1" x="47.6662" y="13.3595" width="3.5712" height="1.5267"/>
  <rect class="cls-1" x="47.6662" y="15.8543" width="3.5712" height="1.5267"/>
  <rect class="cls-1" x="47.6662" y="18.3485" width="3.5712" height="1.5267"/>
  <rect class="cls-1" x="55.6953" y="13.3595" width="3.5712" height="1.5267"/>
  <rect class="cls-1" x="55.6953" y="15.8543" width="3.5712" height="1.5267"/>
  <rect class="cls-1" x="55.6953" y="18.3485" width="3.5712" height="1.5267"/>
  <rect class="cls-1" x=".4434" y="20.8432" width="3.5706" height="1.5267"/>
  <rect class="cls-1" x="8.4726" y="20.8432" width="3.5706" height="1.5267"/>
  <rect class="cls-1" x="47.6662" y="20.8432" width="3.5712" height="1.5267"/>
  <rect class="cls-1" x="55.6953" y="20.8432" width="3.5712" height="1.5267"/>
</svg>