<?xml version="1.0" encoding="UTF-8"?>
<svg id="Layer_1" data-name="Layer 1" xmlns="http://www.w3.org/2000/svg" viewBox="0 0 64.0898 58.33">
  <defs>
    <style>
      .cls-1 {
        fill: #336622;
        stroke-width: 0px;
      }
    </style>
  </defs>
  <circle class="cls-1" cx="57.6088" cy="38.5748" r="2.8804"/>
  <circle class="cls-1" cx="57.6088" cy="24.1726" r="2.8804"/>
  <circle class="cls-1" cx="57.6088" cy="52.977" r="2.8804"/>
  <path class="cls-1" d="M41.6555,37.8778l-17.4555-4.3636c-1.8427-.3855-3.7453-.3855-5.5881,0L1.1577,37.8778c-1.5436.3857-1.5436,1.0116,0,1.3973l17.4543,4.3636c1.8427.3855,3.7453.3855,5.5881,0l17.4555-4.3636c1.5436-.3871,1.5436-1.013,0-1.3973Z"/>
  <path class="cls-1" d="M41.6555,52.28l-17.4555-4.3636c-1.8427-.3855-3.7453-.3855-5.5881,0L1.1577,52.28c-1.5436.3857-1.5436,1.0116,0,1.3973l17.4543,4.3636c1.8427.3855,3.7453.3855,5.5881,0l17.4555-4.3636c1.5436-.3871,1.5436-1.013,0-1.3973Z"/>
  <path class="cls-1" d="M41.6555,23.4756l-16.1477-4.0384-4.8354,4.8357c-.2813.2813-.7373.2813-1.0185,0-.2813-.2813-.2813-.7373,0-1.0185l4.2014-4.2011c-1.7349-.3179-3.5149-.2984-5.2424.0576L1.1577,23.4756c-1.5436.3857-1.5436,1.0116,0,1.3973l17.4543,4.3636c1.8427.3855,3.7453.3855,5.5881,0l17.4555-4.3636c1.5436-.3871,1.5436-1.013,0-1.3973Z"/>
  <path class="cls-1" d="M34.5653,2.8804h5.7609c.3977,0,.7201-.3224.7201-.7201s-.3224-.7201-.7201-.7201h-5.7609c-.3977,0-.7201.3224-.7201.7201s.3224.7201.7201.7201Z"/>
  <path class="cls-1" d="M34.5653,5.7609h11.5218c.3977,0,.7201-.3224.7201-.7201s-.3224-.7201-.7201-.7201h-11.5218c-.3977,0-.7201.3224-.7201.7201s.3224.7201.7201.7201Z"/>
  <path class="cls-1" d="M30.2447,5.7609c1.1931,0,2.1603-.9672,2.1603-2.1603s-.9672-2.1603-2.1603-2.1603-2.1603.9672-2.1603,2.1603c.0017,1.1924.9679,2.1586,2.1603,2.1603ZM30.2447,2.8804c.3977,0,.7201.3224.7201.7201s-.3224.7201-.7201.7201-.7201-.3224-.7201-.7201.3224-.7201.7201-.7201Z"/>
  <path class="cls-1" d="M63.3697,2.8804h-8.6413c-.3977,0-.7201.3224-.7201.7201s.3224.7201.7201.7201h8.6413c.3977,0,.7201-.3224.7201-.7201s-.3224-.7201-.7201-.7201Z"/>
  <path class="cls-1" d="M60.4893,5.7609h-5.7609c-.3977,0-.7201.3224-.7201.7201s.3224.7201.7201.7201h5.7609c.3977,0,.7201-.3224.7201-.7201s-.3224-.7201-.7201-.7201Z"/>
  <path class="cls-1" d="M54.7284,1.4402h2.8804c.3977,0,.7201-.3224.7201-.7201s-.3224-.7201-.7201-.7201h-2.8804c-.3977,0-.7201.3224-.7201.7201s.3224.7201.7201.7201Z"/>
  <path class="cls-1" d="M50.4078,5.7609c1.1931,0,2.1603-.9672,2.1603-2.1603s-.9672-2.1603-2.1603-2.1603-2.1603.9672-2.1603,2.1603c.0017,1.1924.9679,2.1586,2.1603,2.1603ZM50.4078,2.8804c.3977,0,.7201.3224.7201.7201s-.3224.7201-.7201.7201-.7201-.3224-.7201-.7201.3224-.7201.7201-.7201Z"/>
  <path class="cls-1" d="M33.3867,11.5583c.9474-.942,2.2279-1.4727,3.564-1.4768h14.8973c.3977,0,.7201-.3224.7201-.7201s-.3224-.7201-.7201-.7201h-14.8973c-1.7178.0052-3.3642.6875-4.5822,1.8988l-7.3028,7.3028,1.6292.4073,6.6918-6.6918Z"/>
  <path class="cls-1" d="M44.0688,37.855c.2459.4486.2459.9916,0,1.4402h9.2929c-.0972-.4752-.0972-.9651,0-1.4402h-9.2929Z"/>
  <path class="cls-1" d="M44.0688,23.4528c.2459.4486.2459.9916,0,1.4402h9.2929c-.0972-.4752-.0972-.9651,0-1.4402h-9.2929Z"/>
  <path class="cls-1" d="M44.0688,52.2572c.2459.4486.2459.9916,0,1.4402h9.2929c-.0972-.4752-.0972-.9651,0-1.4402h-9.2929Z"/>
</svg>